<svg width="83" height="83" viewBox="0 0 83 83" fill="none" xmlns="http://www.w3.org/2000/svg">
<g id="beach">
<path id="Vector" fill-rule="evenodd" clip-rule="evenodd" d="M24.4193 34.1686C26.5232 38.6003 28.5543 43.6839 29.2006 53.583C30.6448 53.2693 32.0978 53.0161 33.5352 52.8172C32.2679 43.5907 29.8165 37.6765 27.3859 33.1107C31.9106 34.4332 34.7053 36.4171 37.4456 38.6692C37.812 38.9704 38.3501 38.6205 38.2231 38.1635C36.0669 30.3881 31.5893 29.8961 28.4925 30.8421C32.0365 29.14 35.0605 28.6512 38.2042 28.3439C38.6762 28.2977 38.8091 27.6698 38.3963 27.4364C31.3735 23.4631 27.8596 26.281 26.3387 29.1398C27.6413 25.4303 29.4337 22.9466 31.4393 20.5064C31.7405 20.1398 31.3904 19.6019 30.9334 19.7289C24.6606 21.4685 23.1286 24.7189 23.2674 27.5364C21.3731 25.4461 17.9915 24.2308 12.326 27.4364C11.9131 27.6698 12.046 28.2977 12.5181 28.3439C15.6617 28.6512 18.6857 29.1401 22.2297 30.8421C19.1328 29.8959 14.6553 30.3879 12.4991 38.1635C12.3723 38.6205 12.9101 38.9704 13.2766 38.6692C15.7168 36.6636 18.2007 34.871 21.9104 33.5686C19.0516 35.0894 16.2333 38.6033 20.2068 45.6262C20.4402 46.0391 21.0681 45.9063 21.1143 45.4341C21.4655 41.8409 22.0535 38.4045 24.4198 34.1686H24.4193ZM67.8523 37.8934C67.3992 33.0575 66.6871 28.4812 63.5122 22.7976C60.205 29.7641 57.0356 37.9684 57.0218 56.9863C57.0218 57.0894 57.0058 57.1778 56.9691 57.2742C56.239 59.1951 52.2529 58.9465 50.9473 57.5059C50.7963 57.3394 50.7261 57.1418 50.7385 56.9174C51.7095 39.0118 55.7043 28.8464 59.6562 21.4226C53.582 23.1982 49.906 25.8903 46.2297 28.937C45.8669 29.2377 45.3292 28.8949 45.4488 28.4392C48.2021 17.9024 54.1338 17.2259 58.218 18.4737C53.4415 16.1797 49.3918 15.5811 45.1419 15.183C44.6722 15.1391 44.5345 14.5167 44.9417 14.2788C54.3392 8.77498 59.0119 12.491 61.0176 16.2614C59.2622 11.2617 56.8219 7.97497 54.0983 4.68821C53.7978 4.3254 54.1403 3.78785 54.596 3.90732C63.1259 6.13633 65.1934 10.4481 65.0099 14.1768C67.5168 11.4106 72.0276 9.82334 79.6353 14.2788C80.0425 14.5169 79.9047 15.1389 79.4351 15.1828C75.1852 15.5811 71.1355 16.1795 66.359 18.4735C70.4432 17.2256 76.3749 17.9021 79.1282 28.439C79.2478 28.8947 78.7099 29.2376 78.3473 28.9368C75.0605 26.2133 71.7739 23.773 66.7743 22.0175C70.5446 24.0232 74.2605 28.6958 68.7569 38.0934C68.5189 38.5007 67.8966 38.363 67.8527 37.8932L67.8523 37.8934ZM27.1295 66.299C25.1103 67.2078 23.0202 67.2078 21.0011 66.299C20.0571 65.8743 19.113 65.4494 18.1691 65.0247C16.4239 64.2394 14.6258 64.1327 12.8663 64.7048C12.5899 64.7946 12.3145 64.9013 12.0405 65.0247C11.0965 65.4494 10.1524 65.8743 9.20846 66.299C7.81416 66.9264 6.38614 67.1206 4.97108 66.8816C4.48411 66.7994 4.03198 66.9231 3.65459 67.242C3.27737 67.5609 3.08008 67.9861 3.08008 68.48V72.6697C3.92969 73.0277 4.79487 73.2066 5.66199 73.2084C6.56851 73.2104 7.47843 73.011 8.37619 72.6124L11.2463 71.338C12.395 70.828 13.5674 70.5729 14.743 70.5711C15.9131 70.5691 17.0855 70.8256 18.2399 71.3382L21.11 72.6125C22.002 73.0086 22.9121 73.2066 23.8242 73.2066C24.7364 73.2066 25.6464 73.0086 26.5384 72.6125L29.4086 71.338C30.563 70.8254 31.7353 70.5691 32.9054 70.5691C34.0756 70.5691 35.2478 70.8254 36.4021 71.338L39.2725 72.6125C40.1644 73.0086 41.0743 73.2066 41.9867 73.2066C42.899 73.2066 43.8088 73.0086 44.7008 72.6125L47.571 71.338C48.7254 70.8254 49.8978 70.5691 51.0679 70.5711C52.2435 70.573 53.416 70.828 54.5647 71.3382L57.4349 72.6125C58.3268 73.0086 59.2367 73.2066 60.1489 73.2066C61.0611 73.2066 61.9712 73.0086 62.8631 72.6125L65.7332 71.338C66.8876 70.8254 68.06 70.5691 69.2299 70.5691C70.3999 70.5691 71.5723 70.8254 72.7268 71.338L75.597 72.6125C76.4889 73.0086 77.399 73.2066 78.3111 73.2066C79.1783 73.2066 80.0434 73.0277 80.8929 72.6697V68.48C80.8929 67.9861 80.6956 67.5609 80.3184 67.242C79.9412 66.9231 79.489 66.7994 79.0019 66.8816C77.5868 67.1207 76.1587 66.9264 74.7645 66.299C73.8206 65.8743 72.8764 65.4494 71.9325 65.0245C71.6585 64.9011 71.3831 64.7946 71.1068 64.7048C69.3473 64.1326 67.5492 64.2392 65.8041 65.0245C64.86 65.4494 63.916 65.8743 62.972 66.299C60.9528 67.2078 58.8627 67.2078 56.8435 66.299C55.8994 65.8743 54.9554 65.4494 54.0114 65.0247C51.9922 64.116 49.9023 64.116 47.8831 65.0247C46.9391 65.4496 45.995 65.8743 45.051 66.2992C43.0318 67.208 40.9417 67.208 38.9226 66.2992C37.9787 65.8743 37.0345 65.4496 36.0906 65.0247C34.0713 64.116 31.9814 64.116 29.9622 65.0247C29.0182 65.4496 28.0741 65.8744 27.1301 66.2992L27.1295 66.299ZM12.5717 9.3662C10.5334 9.3662 8.88084 11.0187 8.88084 13.0571C8.88084 15.0955 10.5334 16.748 12.5717 16.748C14.6101 16.748 16.2627 15.0955 16.2627 13.0571C16.2627 11.0187 14.6101 9.3662 12.5717 9.3662ZM13.5444 6.16113C13.5444 6.69836 13.109 7.13379 12.5717 7.13379C12.0345 7.13379 11.5991 6.69836 11.5991 6.16113V3.5656C11.5991 3.02837 12.0345 2.59294 12.5717 2.59294C13.109 2.59294 13.5444 3.02837 13.5444 3.5656V6.16113ZM8.38332 7.49318C8.76315 7.87284 8.76315 8.4887 8.38332 8.86852C8.0035 9.24834 7.38765 9.24834 7.00799 8.86852L5.17259 7.03312C4.79276 6.65346 4.79276 6.03744 5.17259 5.65778C5.55241 5.27812 6.16826 5.27812 6.54792 5.65778L8.38332 7.49318ZM5.67594 12.0843C6.21317 12.0843 6.64859 12.5197 6.64859 13.0569C6.64859 13.5942 6.21317 14.0296 5.67594 14.0296H3.08008C2.54285 14.0296 2.10742 13.5942 2.10742 13.0569C2.10742 12.5197 2.54285 12.0843 3.08008 12.0843H5.67594ZM7.00799 17.2454C7.38781 16.8655 8.0035 16.8655 8.38332 17.2454C8.76315 17.6252 8.76315 18.241 8.38332 18.6207L6.54792 20.4561C6.1681 20.8359 5.55225 20.8359 5.17259 20.4561C4.79276 20.0764 4.79276 19.4604 5.17259 19.0808L7.00799 17.2454ZM11.5991 19.9527C11.5991 19.4155 12.0345 18.9801 12.5717 18.9801C13.109 18.9801 13.5444 19.4155 13.5444 19.9527V22.5484C13.5444 23.0857 13.109 23.5211 12.5717 23.5211C12.0345 23.5211 11.5991 23.0857 11.5991 22.5484V19.9527ZM16.7602 18.6207C16.3803 18.241 16.3803 17.6252 16.7602 17.2454C17.14 16.8655 17.7558 16.8655 18.1355 17.2454L19.9711 19.0808C20.3507 19.4606 20.3507 20.0764 19.9711 20.4561C19.5914 20.8358 18.9754 20.8359 18.5957 20.4561L16.7602 18.6207ZM19.4676 14.0296C18.9303 14.0296 18.4949 13.5942 18.4949 13.0569C18.4949 12.5197 18.9303 12.0843 19.4676 12.0843H22.0632C22.6005 12.0843 23.0359 12.5197 23.0359 13.0569C23.0359 13.5942 22.6005 14.0296 22.0632 14.0296H19.4676ZM18.1355 8.86852C17.7558 9.24834 17.14 9.24834 16.7602 8.86852C16.3803 8.4887 16.3803 7.87284 16.7602 7.49318L18.5956 5.65762C18.9752 5.27796 19.5911 5.27796 19.9709 5.65762C20.3506 6.03744 20.3506 6.65329 19.9709 7.03296L18.1353 8.86836L18.1355 8.86852ZM69.1719 62.403C66.7836 60.1108 63.2583 58.159 58.9676 56.7324L58.9671 56.9878C58.967 57.3253 58.9075 57.6497 58.7875 57.9653C57.4715 61.4279 51.6895 61.2221 49.5058 58.8123C49.007 58.2618 48.7559 57.554 48.7961 56.812C48.8366 56.065 48.8829 55.3176 48.9356 54.5696C46.7031 54.3117 44.377 54.1752 41.9865 54.1752C30.1549 54.1752 19.8936 57.5154 14.8009 62.403C16.2143 62.3549 17.6185 62.6438 18.9674 63.2507C19.9114 63.6754 20.8554 64.1003 21.7995 64.525C23.3107 65.2051 24.8202 65.2051 26.3314 64.525C27.2754 64.1002 28.2195 63.6754 29.1635 63.2505C31.6901 62.1137 34.3617 62.1137 36.8885 63.2505C37.8324 63.6753 38.7766 64.1002 39.7205 64.525C41.2317 65.2051 42.7413 65.2051 44.2523 64.525C45.1963 64.1002 46.1404 63.6754 47.0843 63.2505C49.611 62.1135 52.2827 62.1135 54.8093 63.2505C55.7533 63.6753 56.6974 64.1002 57.6414 64.5249C59.1526 65.2049 60.6621 65.2049 62.1733 64.5249C63.1173 64.1 64.0614 63.6753 65.0054 63.2504C66.3543 62.6434 67.7585 62.3546 69.1719 62.4027V62.403ZM3.08008 74.7345C3.9365 75.0127 4.7999 75.152 5.66199 75.15C6.83761 75.1481 8.01015 74.8931 9.15886 74.3831L12.029 73.1087C12.9266 72.7101 13.8367 72.5109 14.7432 72.5128C15.6554 72.5148 16.5655 72.7129 17.4574 73.1089L20.3275 74.3832C21.4819 74.8958 22.6543 75.1521 23.8244 75.1521C24.9945 75.1521 26.1669 74.8958 27.3213 74.3832L30.1914 73.1087C31.0833 72.7127 31.9934 72.5146 32.9056 72.5146C33.8178 72.5146 34.7277 72.7127 35.6196 73.1087L38.49 74.3832C39.6443 74.8958 40.8167 75.1521 41.9868 75.1521C43.1569 75.1521 44.3293 74.8958 45.4835 74.3832L48.3537 73.1087C49.2456 72.7127 50.1555 72.5146 51.0679 72.5128C51.9742 72.5109 52.8843 72.7103 53.7821 73.1089L56.6522 74.3832C57.8066 74.8958 58.979 75.1521 60.1489 75.1521C61.3188 75.1521 62.4914 74.8958 63.6458 74.3832L66.5159 73.1087C67.4078 72.7127 68.3178 72.5146 69.2299 72.5146C70.1421 72.5146 71.052 72.7127 71.9441 73.1087L74.8143 74.3832C75.9687 74.8958 77.141 75.1521 78.3111 75.1521C79.1732 75.1521 80.0365 75.0129 80.8929 74.7347V78.6856C80.8929 79.4629 80.3604 80.1164 79.5991 80.2733C79.1713 80.3615 78.7414 80.4056 78.311 80.4056C77.3988 80.4056 76.4887 80.2075 75.5968 79.8115L72.7266 78.537C71.5723 78.0245 70.3999 77.7681 69.2298 77.7681C68.0597 77.7681 66.8875 78.0245 65.7331 78.537L62.8629 79.8115C61.971 80.2075 61.0609 80.4056 60.1487 80.4056C59.2365 80.4056 58.3266 80.2075 57.4347 79.8115L54.5646 78.5371C53.4159 78.0271 52.2435 77.7721 51.0677 77.77C49.8978 77.7681 48.7252 78.0245 47.5708 78.537L44.7007 79.8115C43.8088 80.2075 42.8988 80.4056 41.9865 80.4056C41.0741 80.4056 40.1644 80.2075 39.2723 79.8115L36.402 78.537C35.2476 78.0245 34.0752 77.7681 32.9053 77.7681C31.7353 77.7681 30.563 78.0245 29.4084 78.537L26.5383 79.8115C25.6464 80.2075 24.7364 80.4056 23.8241 80.4056C22.9117 80.4056 22.002 80.2075 21.1099 79.8115L18.2397 78.5371C17.0854 78.0245 15.913 77.7682 14.7429 77.77C13.5673 77.772 12.3947 78.027 11.2462 78.537L8.37603 79.8113C7.47843 80.2099 6.56835 80.4092 5.66183 80.4074C5.23095 80.4064 4.80071 80.3618 4.37258 80.2733C3.6118 80.1159 3.07992 79.4628 3.07992 78.6858V74.7347L3.08008 74.7345Z" fill="#27502B"/>
</g>
</svg>
