<svg width="84" height="83" viewBox="0 0 84 83" fill="none" xmlns="http://www.w3.org/2000/svg">
<g id="chemistry" clip-path="url(#clip0_107_1191)">
<path id="Vector" d="M67.9176 33.7776V17.8427H47.8372V33.7776C39.195 37.5802 33.1689 46.1397 33.1689 56.0911C33.1689 69.5747 44.231 80.5057 57.8777 80.5057C71.5238 80.5057 82.5865 69.5747 82.5865 56.0911C82.5865 46.1397 76.5604 37.5802 67.9176 33.7776Z" fill="#27502B"/>
<path id="Vector_2" d="M77.5857 56.0918C77.5857 66.8296 68.7455 75.5646 57.8764 75.5646C54.3016 75.5646 50.946 74.6191 48.0531 72.9676C42.1494 69.6013 38.1689 63.2968 38.1689 56.0918C38.1689 50.7048 40.4274 45.6636 44.2245 42.0522H71.5307C75.3273 45.6636 77.5857 50.7048 77.5857 56.0918Z" fill="#49A552"/>
<path id="Vector_3" d="M52.3515 33.7783V29.3684C52.3515 26.9791 54.3113 25.0427 56.7286 25.0427H67.9176V20.3137H52.3515V20.313H47.8378V33.7783C39.1938 37.5809 33.1689 46.1398 33.1689 56.0918C33.1689 69.5177 44.1362 80.412 57.7034 80.5038C50.2725 80.3341 44.2791 69.4696 44.2791 56.0918C44.2791 46.1398 47.5962 37.5809 52.3515 33.7783Z" fill="#27502B"/>
<path id="Vector_4" d="M48.0531 72.9676C42.1494 69.6013 38.1689 63.2968 38.1689 56.0918C38.1689 50.7048 40.4274 45.6636 44.2245 42.0522H46.7528C45.1942 46.0226 44.279 50.8644 44.279 56.0918C44.279 62.6382 45.7146 68.5818 48.0531 72.9676Z" fill="#49A552"/>
<path id="Vector_5" d="M49.4021 69.8888L33.3554 42.4264V28.2184H18.1059V42.4264L2.05912 69.8888C-0.6979 74.6077 2.74806 80.5057 8.26275 80.5057H43.1985C48.7126 80.5057 52.1585 74.6077 49.4021 69.8888Z" fill="#27502B"/>
<path id="Vector_6" d="M33.3554 28.2184H18.1046V42.4258L2.05916 69.8895C-0.699146 74.6084 2.74746 80.5057 8.26086 80.5057H17.7983C15.2944 80.5057 13.7294 74.6084 14.981 69.8895L22.2684 42.4258V35.1321C22.2684 33.6326 23.4982 32.4181 25.0151 32.4181H33.3554V28.2184Z" fill="#27502B"/>
<path id="Vector_7" d="M38.8841 25.0066C38.8841 26.7803 37.4287 28.2178 35.6337 28.2178H15.8263C14.9297 28.2178 14.1164 27.8587 13.5281 27.2774C12.9398 26.6961 12.5764 25.8925 12.5764 25.0066C12.5764 23.2329 14.0312 21.7948 15.8263 21.7948H35.6337C36.5309 21.7948 37.3441 22.1538 37.9325 22.7358C38.5208 23.3171 38.8841 24.1207 38.8841 25.0066Z" fill="#27502B"/>
<path id="Vector_8" d="M38.8842 25.0066C38.8842 26.7803 37.4287 28.2178 35.6337 28.2178H23.7083C22.8098 28.2178 21.9985 27.8587 21.4102 27.2774C20.8219 26.6961 20.4585 25.8925 20.4585 25.0066C20.4585 23.2329 21.9133 21.7948 23.7083 21.7948H35.6337C36.5309 21.7948 37.3442 22.1538 37.9325 22.7358C38.5208 23.3171 38.8842 24.1207 38.8842 25.0066Z" fill="#27502B"/>
<path id="Vector_9" d="M73.5156 17.1012C73.5156 18.8749 72.0608 20.313 70.2657 20.313H45.7627C44.8642 20.313 44.0528 19.954 43.4645 19.3727C42.8762 18.7913 42.5128 17.9878 42.5128 17.1012C42.5128 15.3275 43.9676 13.8901 45.7627 13.8901H70.2657C71.1623 13.8901 71.9756 14.2491 72.5639 14.8304C73.1522 15.4117 73.5156 16.2153 73.5156 17.1012Z" fill="#27502B"/>
<path id="Vector_10" d="M73.5156 17.1012C73.5156 18.8749 72.0608 20.313 70.2657 20.313H53.3583C52.4617 20.313 51.6478 19.954 51.0595 19.3727C50.4712 18.7913 50.1078 17.9878 50.1078 17.1012C50.1078 15.3275 51.5632 13.8901 53.3583 13.8901H70.2657C71.1623 13.8901 71.9756 14.2491 72.5639 14.8304C73.1522 15.4117 73.5156 16.2153 73.5156 17.1012Z" fill="#27502B"/>
<path id="Vector_11" d="M45.0712 74.4956C44.8379 74.8959 44.2842 75.5646 43.1992 75.5646H8.26276C7.17585 75.5646 6.62278 74.8959 6.3895 74.4956C6.15622 74.0973 5.84604 73.2887 6.3895 72.3597L18.1815 52.179H33.2804L45.0712 72.3597C45.6146 73.2887 45.3044 74.0973 45.0712 74.4956Z" fill="#49A552"/>
<path id="Vector_12" d="M14.981 69.8895C14.4895 71.7423 14.4331 73.7763 14.6965 75.5646H8.26276C7.17585 75.5646 6.62278 74.8959 6.3895 74.4956C6.15622 74.0973 5.84604 73.2887 6.3895 72.3597L18.1815 52.179H19.6799L14.981 69.8895Z" fill="#49A552"/>
<path id="Vector_13" d="M69.1672 32.9899V30.524C69.1672 29.842 68.6077 29.2886 67.9168 29.2886C67.2266 29.2886 66.6672 29.842 66.6672 30.524V33.7783C66.6672 34.2658 66.9575 34.7078 67.4086 34.9067C75.8688 38.6289 81.336 46.9446 81.336 56.0918C81.336 68.8725 70.8117 79.2703 57.8763 79.2703C55.2417 79.2703 52.6731 78.8454 50.2192 78.0063C50.3109 77.8689 50.3999 77.729 50.4845 77.5846C50.8293 76.9944 51.0914 76.3783 51.2799 75.7482C53.4005 76.446 55.6128 76.8 57.877 76.8C69.4338 76.8 78.836 67.5104 78.836 56.0918C78.836 50.4958 76.4891 45.0544 72.3978 41.1625C72.1645 40.9408 71.8537 40.8167 71.5307 40.8167H44.2245C43.9015 40.8167 43.5907 40.9402 43.3574 41.1618C41.1624 43.2496 39.4686 45.7617 38.3682 48.5347L36.8154 45.877C39.2392 41.0035 43.3119 37.1218 48.3466 34.9061C48.7978 34.7078 49.0881 34.2658 49.0881 33.7776V21.5485H66.6672V25.5828C66.6672 26.2655 67.2266 26.8183 67.9175 26.8183C68.6077 26.8183 69.1672 26.2655 69.1672 25.5828V21.5485H70.2656C72.7471 21.5485 74.7658 19.5538 74.7658 17.1019C74.7658 14.6506 72.7471 12.6559 70.2656 12.6559H65.1694C64.4792 12.6559 63.9197 13.2087 63.9197 13.8907C63.9197 14.5727 64.4792 15.1261 65.1694 15.1261H70.2656C71.3686 15.1261 72.2658 16.0127 72.2658 17.1019C72.2658 18.1917 71.3686 19.0782 70.2656 19.0782H67.9252C67.9226 19.0782 67.9201 19.0782 67.9175 19.0782H47.8384C47.8352 19.0782 47.8326 19.0782 47.83 19.0782H45.7626C44.6597 19.0782 43.7624 18.1917 43.7624 17.1019C43.7624 16.0127 44.6597 15.1261 45.7626 15.1261H60.1694C60.8596 15.1261 61.4191 14.5727 61.4191 13.8907C61.4191 13.2087 60.8596 12.6559 60.1694 12.6559H45.7626C43.2811 12.6559 41.2624 14.6506 41.2624 17.1019C41.2624 19.5538 43.2811 21.5485 45.7626 21.5485H46.588V32.9899C41.8533 35.2518 37.9408 38.8676 35.3414 43.3548L34.6057 42.0959V29.4532H35.6343C38.1157 29.4532 40.1345 27.4585 40.1345 25.0066C40.1345 22.5553 38.1157 20.5606 35.6343 20.5606H15.8269C13.3454 20.5606 11.3267 22.5553 11.3267 25.0066C11.3267 27.4585 13.3454 29.4532 15.8269 29.4532H16.8555V42.0959L0.976649 69.2714C-0.544137 71.874 -0.544137 74.982 0.976649 77.5846C2.49743 80.1872 5.22049 81.7412 8.26206 81.7412H29.6691C30.3599 81.7412 30.9194 81.1877 30.9194 80.5057C30.9194 79.8237 30.3599 79.2709 29.6691 79.2709H8.26206C6.12476 79.2709 4.21048 78.1786 3.14151 76.3491C2.07254 74.5203 2.07254 72.3357 3.14151 70.5069L19.1883 43.0445C19.2979 42.8564 19.3555 42.6436 19.3555 42.4264V29.4532H32.1056V42.4264C32.1056 42.6436 32.1633 42.8564 32.2729 43.0445L48.319 70.5069C49.388 72.3357 49.388 74.5197 48.319 76.3491C47.2507 78.1786 45.3364 79.2709 43.1985 79.2709H34.6698C33.9796 79.2709 33.4201 79.8237 33.4201 80.5057C33.4201 81.1877 33.9796 81.7412 34.6698 81.7412H43.1985C45.1377 81.7412 46.9463 81.1067 48.3979 79.9744C51.4151 81.1459 54.5996 81.7412 57.8763 81.7412C72.1908 81.7412 83.8361 70.2352 83.8361 56.0924C83.8361 46.2398 78.1048 37.2598 69.1672 32.9899ZM18.1052 26.9829H15.8269C14.724 26.9829 13.8267 26.0964 13.8267 25.0066C13.8267 23.9174 14.724 23.0309 15.8269 23.0309H35.6343C36.7366 23.0309 37.6338 23.9174 37.6338 25.0066C37.6338 26.0964 36.7366 26.9829 35.6343 26.9829H18.1052ZM40.0435 51.402C40.8708 48.3377 42.482 45.5496 44.7378 43.2876H71.0167C74.4031 46.6888 76.336 51.3273 76.336 56.0918C76.336 66.1483 68.0546 74.3297 57.8763 74.3297C55.7217 74.3297 53.6209 73.9663 51.6189 73.2488C51.5887 71.881 51.2132 70.5183 50.4845 69.2714L40.0435 51.402Z" fill="white"/>
<path id="Vector_14" d="M46.1542 75.1143C46.7803 74.0429 46.7803 72.8138 46.1542 71.7417L34.3628 51.5616C34.1398 51.1797 33.7271 50.9442 33.2804 50.9442H18.1808C17.7341 50.9442 17.3214 51.1797 17.0984 51.5616L5.30639 71.7417C4.68026 72.8131 4.68026 74.0423 5.30639 75.1137C5.93252 76.1858 7.00982 76.8 8.26208 76.8H43.1985C44.4508 76.8 45.5281 76.1858 46.1542 75.1143ZM7.47189 73.8789C7.20849 73.428 7.40011 73.1006 7.47189 72.9771L18.9025 53.4144H32.5588L43.9893 72.9771C44.0611 73.1 44.2527 73.428 43.9887 73.8789C43.7253 74.3297 43.3427 74.3297 43.1985 74.3297H8.26208C8.11853 74.3297 7.73529 74.3297 7.47189 73.8789Z" fill="white"/>
<path id="Vector_15" d="M29.5736 64.5519C29.1403 63.5374 27.6202 63.5621 27.2427 64.6089C26.864 65.6607 28.038 66.6473 29.0301 66.102C29.5761 65.8019 29.8113 65.1212 29.5736 64.5519Z" fill="white"/>
<path id="Vector_16" d="M22.9048 15.6207C23.993 15.6207 24.562 14.2706 23.7885 13.5108C23.3579 13.0877 22.6631 13.0346 22.1703 13.3854C21.7691 13.6716 21.5756 14.1877 21.6877 14.6639C21.8191 15.2154 22.3299 15.6207 22.9048 15.6207Z" fill="white"/>
<path id="Vector_17" d="M27.187 10.7182C28.1406 11.3533 29.4121 10.4117 29.0756 9.33262C28.9186 8.82919 28.4457 8.47014 27.9105 8.45685C27.3664 8.44418 26.864 8.79246 26.6942 9.30412C26.523 9.82021 26.7198 10.4212 27.187 10.7182Z" fill="white"/>
<path id="Vector_18" d="M24.0153 3.00021C24.2236 3.48908 24.735 3.8038 25.2733 3.75884C25.7578 3.71831 26.1802 3.39472 26.3455 2.94449C26.7288 1.89838 25.5637 0.923818 24.5806 1.43864C24.0236 1.73057 23.7692 2.4246 24.0153 3.00021Z" fill="white"/>
<path id="Vector_19" d="M67.7003 48.9456C67.8817 49.4035 68.3604 49.71 68.8539 49.71C69.4422 49.7093 69.9652 49.2851 70.0805 48.7151C70.2946 47.6614 69.0769 46.8598 68.1707 47.4404C67.6747 47.7583 67.4696 48.4061 67.7003 48.9456Z" fill="white"/>
<path id="Vector_20" d="M69.4806 55.5022C68.4174 55.7213 68.1174 57.1404 69.0307 57.7401C69.4742 58.0314 70.0727 58.0105 70.4931 57.6869C70.9309 57.35 71.0911 56.7472 70.8789 56.2412C70.6527 55.7023 70.0606 55.3895 69.4806 55.5022Z" fill="white"/>
<path id="Vector_21" d="M52.2649 66.4852C52.4706 66.9671 52.9666 67.278 53.4973 67.2451C53.9869 67.214 54.4233 66.8923 54.5925 66.437C54.9815 65.3916 53.8184 64.4062 52.8301 64.923C52.2726 65.2149 52.0194 65.9095 52.2649 66.4852Z" fill="white"/>
<path id="Vector_22" d="M47.4245 54.4263C46.8842 54.5378 46.4708 54.9899 46.4241 55.5345C46.3798 56.0468 46.6734 56.542 47.1444 56.7573C47.6065 56.9675 48.166 56.877 48.5338 56.5293C48.9094 56.1754 49.0215 55.6105 48.8139 55.1419C48.5812 54.6195 47.9923 54.3143 47.4245 54.4263Z" fill="white"/>
<path id="Vector_23" d="M61.7652 53.1453C61.9517 53.6145 62.4445 53.9185 62.9489 53.9071C63.4609 53.8957 63.923 53.5639 64.096 53.089C64.2691 52.6134 64.1204 52.0688 63.7352 51.7389C63.3154 51.3792 62.6868 51.3437 62.2247 51.6464C61.737 51.9675 61.537 52.6096 61.7652 53.1453Z" fill="white"/>
<path id="Vector_24" d="M20.8232 67.1095C20.629 66.6542 20.1714 66.3471 19.669 66.3471C19.146 66.3471 18.6699 66.6815 18.4923 67.1659C18.0995 68.2411 19.3389 69.2296 20.322 68.6356C20.8373 68.3241 21.059 67.6617 20.8232 67.1095Z" fill="white"/>
<path id="Vector_25" d="M22.6753 58.379C22.1433 58.488 21.7274 58.93 21.6761 59.4689C21.6274 59.978 21.9068 60.4782 22.374 60.7011C22.8579 60.931 23.4475 60.8265 23.8198 60.4453C24.1877 60.0692 24.271 59.4885 24.0301 59.0249C23.7788 58.5424 23.2142 58.272 22.6753 58.379Z" fill="white"/>
</g>
<defs>
<clipPath id="clip0_107_1191">
<rect width="84" height="83" fill="white"/>
</clipPath>
</defs>
</svg>
