<svg width="84" height="84" viewBox="0 0 84 84" fill="none" xmlns="http://www.w3.org/2000/svg">
<g id="factory (1)">
<path id="Vector" d="M37.7449 60.375L41.8333 46.2315C42.8151 42.5512 43.3125 38.7581 43.3125 34.9506V30.1875H59.0625V34.9506C59.0625 38.7594 59.5599 42.5512 60.5404 46.2315L66.906 68.25L70.875 80.0625H32.8125L37.7449 60.375Z" fill="#27502B"/>
<path id="Vector_2" d="M59.6715 77.4375C49.3644 77.4375 41.8031 67.7486 44.3087 57.75L48.3971 43.6065C49.3776 39.9262 49.875 36.1331 49.875 32.3256V30.1875H43.3125V34.9506C43.3125 38.7594 42.8151 42.5512 41.8346 46.2315L37.7449 60.375L32.8125 80.0625H70.875L69.993 77.4375H59.6715Z" fill="#27502B"/>
<path id="Vector_3" d="M80.4523 9.04444L80.0625 7.875C80.0625 5.70019 78.2998 3.9375 76.125 3.9375C74.3466 3.9375 72.8608 5.12531 72.3726 6.74494C71.2425 5.82487 69.8211 5.25 68.25 5.25C64.6262 5.25 61.6875 8.18869 61.6875 11.8125C60.2858 11.8125 59.0402 12.5711 58.3787 13.8022C58.0387 14.4349 57.8668 15.1554 57.8563 15.8721C57.8458 16.5454 58.2409 17.3906 57.6516 17.913C57.0452 18.4498 55.9545 18.5587 55.2221 18.2779C54.3336 17.9366 54.2417 17.0573 53.5408 16.5322C51.9343 15.3287 49.4484 15.4284 47.9994 17.4313C47.4876 18.1401 47.25 19.0155 47.25 19.8896V27.5625H55.125V25.8786C55.125 24.5319 55.986 23.3376 57.2631 22.9123L57.5767 22.8073C59.5114 22.1629 61.6573 23.5056 61.6875 25.5439V25.5924V25.9665C61.6875 29.1414 63.8111 32.0736 66.927 32.6812C71.1309 33.5042 74.8125 30.3069 74.8125 26.25C74.8125 26.1647 74.7902 26.0859 74.7876 26.0006C75.9006 26.4049 77.2039 26.4167 78.6739 25.2696C79.5729 24.5674 80.0625 23.4544 80.0625 22.3125C81.7569 18.0758 81.8961 13.3744 80.4523 9.04444Z" fill="#27502B"/>
<path id="Vector_4" d="M81.0298 11.256C80.7699 12.7431 80.0966 14.1291 79.8079 15.6306C79.5624 16.9037 79.2514 18.1926 78.2289 18.9919C77.2971 19.719 76.2261 19.7767 75.4346 19.2386C74.6957 18.7359 73.9095 18.2175 72.9028 18.4419C71.9381 18.6572 71.148 19.4552 70.938 20.4212C70.8409 20.8661 70.8592 21.2953 70.9682 21.6851C71.4026 23.2549 71.2202 24.9861 70.0481 26.1174C68.8288 27.2947 67.0976 27.8486 64.8795 27.4155C63.6602 27.1766 62.5866 26.6096 61.6875 25.8418V25.9691C61.6875 29.1441 63.8111 32.0762 66.927 32.6839C71.1309 33.5042 74.8125 30.3069 74.8125 26.25C74.8125 26.1647 74.7902 26.0859 74.7876 26.0006C75.9006 26.4049 77.2039 26.4167 78.6739 25.2696C79.5729 24.5674 80.0625 23.4544 80.0625 22.3125C81.4721 18.7871 81.7884 14.9428 81.0298 11.256Z" fill="#27502B"/>
<path id="Vector_5" d="M56.4165 18.4039C55.9978 18.4498 55.5686 18.4117 55.2221 18.2779C54.3336 17.9366 54.2417 17.0572 53.5408 16.5322C51.9343 15.3287 49.4484 15.4284 47.9994 17.4313C47.5335 18.0771 47.3051 18.8606 47.2657 19.656C48.7003 20.7401 50.5641 21.2848 52.5919 20.8477C54.1301 20.517 55.4833 19.6232 56.4165 18.4039Z" fill="#27502B"/>
<path id="Vector_6" d="M66.9375 74.8125H80.0625V80.0625H66.9375V74.8125Z" fill="#27502B"/>
<path id="Vector_7" d="M73.5 68.25L66.9375 74.8125H80.0625L73.5 68.25Z" fill="#27502B"/>
<path id="Vector_8" d="M48.5625 5.25C45.3442 5.25 42.6786 7.5705 42.1194 10.6286C40.9999 9.74006 39.6021 9.1875 38.0625 9.1875H38.0257C35.0123 9.1875 32.1628 7.8855 30.135 5.65687C29.1742 4.60031 27.7896 3.9375 26.25 3.9375C23.8035 3.9375 21.7481 5.61094 21.1654 7.875L21.1221 7.97738C21.0801 7.94456 21.042 7.9065 21 7.875L21.0893 8.0535L21.0341 8.18344L21 7.875C19.9028 7.05075 18.5404 6.5625 17.0625 6.5625C13.4387 6.5625 10.5 9.50119 10.5 13.125C10.5 16.7488 13.4387 19.6875 17.0625 19.6875V24.9375H28.875V22.0867C28.875 20.0366 30.5366 18.375 32.5867 18.375C33.5711 18.375 34.5161 18.7661 35.2117 19.4618L36.6909 20.9409C37.7186 21.9686 39.2752 22.3637 40.614 21.7954C42.6143 20.9462 44.1039 19.1297 44.5056 16.9339C45.9572 18.0863 47.8761 18.6729 49.9682 18.2227C52.4698 17.6846 54.495 15.6634 54.9924 13.1539C55.8259 8.94206 52.626 5.25 48.5625 5.25Z" fill="#27502B"/>
<path id="Vector_9" d="M15.4311 9.19538C17.3408 9.10219 19.1232 10.0419 20.4028 11.4621C20.7874 11.8886 21.1024 12.2994 21.357 12.6971C22.0408 13.7655 23.7432 13.1434 23.5095 11.8965C23.503 11.8637 23.4977 11.8322 23.4912 11.7994C22.9583 9.17176 20.7795 7.06388 18.1309 6.64651C14.5675 6.08344 11.4516 8.39607 10.6917 11.6169C11.8309 10.2231 13.5135 9.28857 15.4311 9.19538Z" fill="#27502B"/>
<path id="Vector_10" d="M54.8153 9.84769C54.1275 12.0579 52.2533 13.7931 49.9669 14.2852C48.6911 14.5596 47.4784 14.448 46.3982 14.0582C45.4099 13.7012 44.2969 14.0844 43.785 15.0032C43.0776 16.275 41.9619 17.2869 40.6127 17.8592C39.2753 18.4262 37.7173 18.0324 36.6896 17.0047L36.3891 16.7042C35.8234 16.1385 35.4834 15.4087 35.2905 14.6331C35.1698 14.1501 34.9834 13.6815 34.7655 13.2431C33.8901 11.4817 31.5223 11.0998 30.1927 12.5488C29.7084 13.0751 29.2412 13.7051 28.875 14.4375C28.2817 15.624 27.9641 16.7974 27.7869 17.7424C27.7069 17.934 27.6491 18.1217 27.6386 18.2989C27.5625 19.6875 26.4298 21 24.9375 21H17.0625V24.9375H28.875V22.2364C28.875 20.7637 29.6599 19.3423 30.9986 18.7267C32.487 18.0429 34.1421 18.3921 35.2131 19.4618L36.6922 20.9409C37.7199 21.9686 39.2766 22.3637 40.6153 21.7954C42.6156 20.9475 44.1052 19.1297 44.5069 16.9339C45.9585 18.0863 47.8787 18.6729 49.9708 18.2227C52.4764 17.682 54.4976 15.6647 54.9938 13.1499C55.2221 11.9857 55.1355 10.8649 54.8153 9.84769Z" fill="#27502B"/>
<path id="Vector_11" d="M39.375 74.8125H66.9375V80.0625H39.375V74.8125Z" fill="#27502B"/>
<path id="Vector_12" d="M66.9375 74.8125L73.5 68.25H39.375V74.8125" fill="#27502B"/>
<path id="Vector_13" d="M37.9103 59.8041L34.2904 46.2315C33.3099 42.5512 32.8125 38.7581 32.8125 34.9506V27.5625H14.4375V34.125V34.9506C14.4375 38.7594 13.9401 42.5512 12.9596 46.2315L3.9375 80.0625H43.3125L37.9103 59.8041Z" fill="#27502B"/>
<path id="Vector_14" d="M14.6698 56.8785L18.2096 43.6065C19.1901 39.9262 19.6875 36.1331 19.6875 32.3256V31.5V27.5625H14.4375V34.125V34.9506C14.4375 38.7594 13.9401 42.5512 12.9596 46.2315L3.9375 80.0625H43.3125L42.6129 77.4375H30.4657C19.7242 77.4375 11.9031 67.2564 14.6698 56.8785Z" fill="#27502B"/>
</g>
</svg>
