<svg width="85" height="85" viewBox="0 0 85 85" fill="none" xmlns="http://www.w3.org/2000/svg">
<g id="megaphone (1)">
<g id="Group">
<g id="Group_2">
<path id="Vector" d="M77.541 35.2913L44.3896 2.13513C42.4344 0.184774 39.2716 0.20785 37.342 2.13264C35.4015 4.07818 35.4015 7.23713 37.342 9.18018L70.4982 42.3341C72.4406 44.2764 75.5984 44.2764 77.541 42.3341C79.4887 40.3864 79.4887 37.2387 77.541 35.2913Z" fill="#27502B"/>
</g>
</g>
<g id="Group_3">
<g id="Group_4">
<path id="Vector_2" d="M34.8824 13.7635L34.6329 15.0143C32.8753 23.8062 28.6037 32.1586 22.8262 38.9282L40.8633 56.9654C47.6321 51.189 55.8695 46.8027 64.6617 45.0429L65.9148 44.7934L34.8824 13.7635Z" fill="#27502B"/>
</g>
</g>
<g id="Group_5">
<g id="Group_6">
<path id="Vector_3" d="M19.5193 42.6643L7.19216 54.989C4.27941 57.9017 4.26729 62.6305 7.19216 65.5554L14.2349 72.5981C17.1476 75.5109 21.8764 75.5228 24.8013 72.5981L37.1273 60.2721L19.5193 42.6643ZM21.2801 62.0342C20.3074 63.0069 18.7314 63.0069 17.7587 62.0342C16.7861 61.0615 16.7861 59.4855 17.7587 58.5128L21.2801 54.9915C22.2528 54.0188 23.8288 54.0188 24.8015 54.9915C25.7742 55.9641 25.7742 57.5401 24.8015 58.5128L21.2801 62.0342Z" fill="#27502B"/>
</g>
</g>
<g id="Group_7">
<g id="Group_8">
<path id="Vector_4" d="M47.5247 73.9233L50.9123 70.5357C53.8373 67.6112 53.8277 62.8824 50.9124 59.9719L48.3963 57.454C47.0056 58.3882 45.6774 59.4032 44.3862 60.4863L47.3911 63.4956C48.3614 64.461 48.3682 66.0322 47.3911 67.0145L43.9476 70.458L38.8871 65.5551L31.844 72.5981L43.1425 83.5464C45.0707 85.4795 48.2364 85.4904 50.1828 83.5439C52.1258 81.6008 52.1258 78.4419 50.1828 76.4987L47.5247 73.9233Z" fill="#27502B"/>
</g>
</g>
<g id="Group_9">
<g id="Group_10">
<path id="Vector_5" d="M57.585 0C56.2085 0 55.0947 1.1138 55.0947 2.49024V7.47072C55.0947 8.84716 56.2085 9.96096 57.585 9.96096C58.9614 9.96096 60.0752 8.84716 60.0752 7.47072V2.49024C60.0752 1.1138 58.9614 0 57.585 0Z" fill="#27502B"/>
</g>
</g>
<g id="Group_11">
<g id="Group_12">
<path id="Vector_6" d="M77.5069 19.9219H72.5264C71.1499 19.9219 70.0361 21.0357 70.0361 22.4122C70.0361 23.7886 71.1499 24.9024 72.5264 24.9024H77.5069C78.8833 24.9024 79.9971 23.7886 79.9971 22.4122C79.9971 21.0357 78.8833 19.9219 77.5069 19.9219Z" fill="#27502B"/>
</g>
</g>
<g id="Group_13">
<g id="Group_14">
<path id="Vector_7" d="M74.287 5.70995C73.3143 4.73727 71.7383 4.73727 70.7657 5.70995L65.7852 10.6904C64.8125 11.6631 64.8125 13.2391 65.7852 14.2118C66.7579 15.1845 68.3339 15.1847 69.3065 14.2118L74.287 9.23132C75.2597 8.25863 75.2597 6.68264 74.287 5.70995Z" fill="#27502B"/>
</g>
</g>
</g>
</svg>
