<svg width="69" height="69" viewBox="0 0 69 69" fill="none" xmlns="http://www.w3.org/2000/svg">
<g id="molecular-structure (1)" clip-path="url(#clip0_107_1258)">
<g id="018---Molecules">
<path id="Shape" d="M14.2858 6.15922V6.16071C14.2858 7.11735 15.0613 7.89286 16.018 7.89286C16.9746 7.89286 17.7501 7.11735 17.7501 6.16071C17.7501 5.75636 18.0779 5.42857 18.4822 5.42857C19.4389 5.42857 20.2144 4.65306 20.2144 3.69643C20.2144 2.73979 19.4389 1.96429 18.4822 1.96428L18.4808 1.96429C16.1668 1.9712 14.2927 3.84529 14.2858 6.15922ZM12.8215 6.16071C12.8215 3.03439 15.3559 0.5 18.4822 0.5C19.9836 0.5 21.4234 1.0964 22.485 2.15798C23.5466 3.21957 24.143 4.6594 24.143 6.16071C24.143 9.28704 21.6086 11.8214 18.4822 11.8214C15.3559 11.8214 12.8215 9.28704 12.8215 6.16071Z" fill="#27502B" stroke="black"/>
<path id="Shape_2" d="M50.0178 8.6235V8.62499C50.0178 9.58163 50.7933 10.3571 51.7499 10.3571C52.7065 10.3571 53.482 9.58163 53.482 8.62499C53.482 8.22064 53.8098 7.89285 54.2142 7.89285C55.1708 7.89285 55.9463 7.11734 55.9463 6.16071C55.9463 5.20407 55.1708 4.42856 54.2142 4.42856L54.2127 4.42857C51.8988 4.43548 50.0247 6.30957 50.0178 8.6235ZM48.5535 8.62499C48.5535 5.49867 51.0879 2.96428 54.2142 2.96428C55.7155 2.96428 57.1553 3.56067 58.2169 4.62226C59.2785 5.68385 59.8749 7.12368 59.8749 8.62499C59.8749 11.7513 57.3405 14.2857 54.2142 14.2857C51.0879 14.2857 48.5535 11.7513 48.5535 8.62499Z" fill="#27502B" stroke="black"/>
<path id="Shape_3" d="M22.9108 62.8378V62.8393C22.9108 63.7959 23.6863 64.5714 24.643 64.5714C25.5996 64.5714 26.3751 63.7959 26.3751 62.8393C26.3751 62.4349 26.7029 62.1071 27.1072 62.1071C28.0639 62.1071 28.8394 61.3316 28.8394 60.375C28.8394 59.9156 28.6569 59.475 28.3321 59.1502C28.0072 58.8254 27.5666 58.6429 27.1072 58.6429L27.1058 58.6429C24.7918 58.6498 22.9177 60.5239 22.9108 62.8378ZM27.1072 68.5C23.9809 68.5 21.4465 65.9656 21.4465 62.8393C21.4465 59.713 23.9809 57.1786 27.1072 57.1786C30.2336 57.1786 32.768 59.713 32.768 62.8393C32.768 65.9656 30.2336 68.5 27.1072 68.5Z" fill="#27502B" stroke="black"/>
<path id="Oval" d="M6.89286 34.5C6.89286 36.2653 5.46177 37.6964 3.69643 37.6964C1.93109 37.6964 0.5 36.2653 0.5 34.5C0.5 32.7347 1.93109 31.3036 3.69643 31.3036C5.46177 31.3036 6.89286 32.7347 6.89286 34.5Z" fill="#27502B" stroke="black"/>
<path id="Oval_2" d="M68.5 49.2857C68.5 51.0511 67.0689 52.4822 65.3036 52.4822C63.5383 52.4822 62.1072 51.0511 62.1072 49.2857C62.1072 47.5204 63.5383 46.0893 65.3036 46.0893C67.0689 46.0893 68.5 47.5204 68.5 49.2857Z" fill="#27502B" stroke="black"/>
<path id="Shape_4" d="M25.3749 34.4994V34.5C25.3749 35.4566 26.1504 36.2321 27.1071 36.2321C28.0637 36.2321 28.8392 35.4566 28.8392 34.5C28.8392 31.3737 31.3736 28.8393 34.4999 28.8393C35.4566 28.8393 36.2321 28.0638 36.2321 27.1071C36.2321 26.1505 35.4566 25.375 34.4999 25.375L34.4994 25.375C29.4625 25.3807 25.3807 29.4625 25.3749 34.4994ZM23.9106 34.5C23.9106 28.6518 28.6514 23.9109 34.4995 23.9107C40.3443 23.92 45.0801 28.6559 45.0892 34.5008C45.0888 40.3487 40.348 45.0893 34.4999 45.0893C28.6516 45.0893 23.9106 40.3483 23.9106 34.5Z" fill="#27502B" stroke="black"/>
<path id="Path" d="M42.5958 23.0156L48.1954 15.4833C48.5626 15.8059 48.9544 16.0995 49.367 16.3616L43.7463 23.9219C43.3807 23.5978 42.9965 23.2952 42.5958 23.0156Z" fill="#27502B" stroke="black"/>
<path id="Path_2" d="M27.8331 22.1294C27.4041 22.3627 26.9862 22.6158 26.5807 22.8878L22.1204 14.5289C22.5678 14.3364 22.9983 14.1066 23.407 13.8417L27.8331 22.1294Z" fill="#27502B" stroke="black"/>
<path id="Path_3" d="M31.673 48.2687L30.1164 54.2235C29.6536 54.0615 29.1779 53.9388 28.6945 53.8566L30.2511 47.902C30.7174 48.0521 31.1922 48.1745 31.673 48.2687Z" fill="#27502B" stroke="black"/>
<path id="Path_4" d="M20.4464 34.5C20.4464 34.7486 20.4547 34.992 20.4688 35.2321H10.3171C10.3704 34.7455 10.3704 34.2545 10.3171 33.7679H20.4688C20.4547 34.008 20.4464 34.2514 20.4464 34.5Z" fill="#27502B" stroke="black"/>
<path id="Path_5" d="M58.9974 47.1292L46.7669 41.3663C47.0051 40.9423 47.2195 40.5054 47.4092 40.0577L59.6196 45.8044C59.363 46.2212 59.1542 46.6656 58.9974 47.1292Z" fill="#27502B" stroke="black"/>
</g>
</g>
<defs>
<clipPath id="clip0_107_1258">
<rect width="69" height="69" fill="white"/>
</clipPath>
</defs>
</svg>
