<svg width="78" height="82" viewBox="0 0 78 82" fill="none" xmlns="http://www.w3.org/2000/svg">
<g id="Save Water">
<path id="Vector" d="M15.5972 45.652C15.1842 45.2345 14.6927 44.9028 14.1511 44.6759C13.6095 44.449 13.0284 44.3314 12.4411 44.3298C11.8539 44.3283 11.2722 44.4428 10.7293 44.6668C10.1865 44.8908 9.69333 45.2199 9.27811 45.6351C8.86289 46.0504 8.53383 46.5436 8.30985 47.0864C8.08588 47.6292 7.97139 48.211 7.97299 48.7982C7.97459 49.3854 8.09223 49.9666 8.31916 50.5082C8.54609 51.0498 8.87782 51.5412 9.2953 51.9542L16.6695 59.3286C16.7699 59.4256 16.85 59.5416 16.9051 59.6699C16.9602 59.7982 16.9892 59.9361 16.9905 60.0758C16.9917 60.2154 16.9651 60.3538 16.9122 60.4831C16.8593 60.6123 16.7812 60.7297 16.6825 60.8284C16.5838 60.9271 16.4664 61.0052 16.3372 61.0581C16.2079 61.111 16.0695 61.1376 15.9299 61.1364C15.7902 61.1351 15.6523 61.1061 15.524 61.051C15.3957 60.9959 15.2797 60.9158 15.1827 60.8154L7.80826 53.4412C7.00739 52.6419 6.42698 51.6489 6.12344 50.5589C5.8199 49.4688 5.80357 48.3188 6.07603 47.2205C6.34849 46.1223 6.90048 45.1133 7.67833 44.2915C8.45617 43.4697 9.43342 42.8632 10.515 42.5309V28.3734C10.515 26.979 9.96112 25.6418 8.97515 24.6558C7.98918 23.6698 6.65191 23.1159 5.25753 23.1159C3.86315 23.1159 2.52588 23.6698 1.53991 24.6558C0.553934 25.6418 1.97023e-05 26.979 1.97023e-05 28.3734V57.1249C-0.00187737 57.8156 0.133241 58.4997 0.397553 59.1378C0.661865 59.7758 1.05012 60.3551 1.53984 60.8421L12.618 71.9204V80.9485C12.618 81.2274 12.7288 81.4948 12.926 81.692C13.1232 81.8892 13.3907 82 13.6695 82H32.5966C32.8755 82 33.1429 81.8892 33.3401 81.692C33.5373 81.4948 33.6481 81.2274 33.6481 80.9485V64.1245C33.648 63.8456 33.5372 63.5782 33.34 63.3811C33.1356 63.1766 15.8131 45.844 15.5972 45.652Z" fill="#27502B"/>
<path id="Vector_2" d="M72.5538 23.1159C71.1599 23.1175 69.8236 23.672 68.838 24.6576C67.8523 25.6432 67.2979 26.9795 67.2962 28.3734V42.5309C68.3779 42.8632 69.3551 43.4697 70.133 44.2915C70.9108 45.1133 71.4628 46.1223 71.7353 47.2205C72.0077 48.3188 71.9914 49.4688 71.6879 50.5589C71.3843 51.6489 70.8039 52.6419 70.003 53.4412L62.6286 60.8154C62.4303 61.0069 62.1647 61.1129 61.889 61.1105C61.6133 61.1081 61.3496 60.9975 61.1546 60.8026C60.9597 60.6076 60.8491 60.3439 60.8467 60.0682C60.8443 59.7925 60.9503 59.5269 61.1418 59.3286L68.516 51.9542C68.9298 51.5404 69.258 51.0491 69.482 50.5085C69.706 49.9678 69.8212 49.3883 69.8212 48.8031C69.8212 48.2179 69.706 47.6384 69.482 47.0978C69.2581 46.5571 68.9298 46.0659 68.516 45.652C68.1022 45.2382 67.611 44.91 67.0703 44.686C66.5297 44.4621 65.9502 44.3468 65.365 44.3468C64.7798 44.3468 64.2003 44.4621 63.6597 44.686C63.119 44.91 62.6277 45.2382 62.2139 45.652C61.9979 45.844 44.6755 63.1766 44.4711 63.3811C44.274 63.5782 44.1632 63.8456 44.1632 64.1245V80.9485C44.1632 81.2274 44.274 81.4948 44.4712 81.692C44.6684 81.8892 44.9358 82 45.2147 82H64.1417C64.4206 82 64.6881 81.8892 64.8853 81.692C65.0825 81.4948 65.1932 81.2274 65.1932 80.9485V71.9204L76.2714 60.8421C76.7612 60.3551 77.1494 59.7758 77.4137 59.1378C77.6781 58.4997 77.8132 57.8156 77.8113 57.1249V28.3734C77.8096 26.9795 77.2552 25.6432 76.2696 24.6576C75.2839 23.672 73.9476 23.1175 72.5538 23.1159Z" fill="#27502B"/>
<path id="Vector_3" d="M57.8327 31.5279C57.8327 21.38 40.4409 1.19965 39.7005 0.345829C39.5989 0.236715 39.4758 0.1497 39.3391 0.0902025C39.2023 0.0307051 39.0548 0 38.9057 0C38.7565 0 38.609 0.0307051 38.4723 0.0902025C38.3355 0.1497 38.2125 0.236715 38.1108 0.345829C37.3705 1.19965 19.9786 21.38 19.9786 31.5279C19.9786 36.5477 21.9727 41.3618 25.5222 44.9113C29.0717 48.4608 33.8859 50.4549 38.9057 50.4549C43.9254 50.4549 48.7396 48.4608 52.2891 44.9113C55.8386 41.3618 57.8327 36.5477 57.8327 31.5279ZM38.9057 46.2489C35.0028 46.2445 31.261 44.6922 28.5012 41.9324C25.7414 39.1726 24.189 35.4308 24.1846 31.5279C24.1846 31.249 24.2954 30.9816 24.4926 30.7844C24.6898 30.5872 24.9573 30.4764 25.2361 30.4764C25.515 30.4764 25.7825 30.5872 25.9797 30.7844C26.1769 30.9816 26.2876 31.249 26.2876 31.5279C26.2915 34.8732 27.6221 38.0805 29.9876 40.446C32.3531 42.8115 35.5603 44.1421 38.9057 44.1459C39.1845 44.1459 39.452 44.2567 39.6492 44.4539C39.8464 44.6511 39.9572 44.9186 39.9572 45.1974C39.9572 45.4763 39.8464 45.7438 39.6492 45.941C39.452 46.1382 39.1845 46.2489 38.9057 46.2489Z" fill="#27502B"/>
</g>
</svg>
