<svg width="69" height="68" viewBox="0 0 69 68" fill="none" xmlns="http://www.w3.org/2000/svg">
<g id="trash-can">
<g id="Group">
<g id="Group_2">
<path id="Vector" d="M58.7578 7.96875H46.7387L45.4248 4.08558C44.5976 1.64196 42.2858 0 39.6722 0H29.3278C26.7141 0 24.4024 1.64196 23.5733 4.08558L22.2609 7.96875H10.2422C6.89811 7.96875 4.17773 10.6497 4.17773 13.9453V17.9297C4.17773 20.1487 6.20474 19.9219 8.38013 19.9219C27.0524 19.9219 43.9818 19.9219 62.8008 19.9219C63.9181 19.9219 64.8223 19.0308 64.8223 17.9297V13.9453C64.8223 10.6497 62.1019 7.96875 58.7578 7.96875ZM26.5236 7.96875L27.409 5.34623C27.6854 4.53103 28.4572 3.98438 29.3278 3.98438H39.6722C40.5428 3.98438 41.3147 4.53103 41.5891 5.34623L42.4754 7.96875H26.5236Z" fill="#27502B"/>
</g>
</g>
<g id="Group_3">
<g id="Group_4">
<path id="Vector_2" d="M8.71484 24.1719L11.938 62.5642C12.2243 65.6634 14.8203 68 17.9769 68H51.0234C54.18 68 56.776 65.6634 57.0642 62.5467L60.2856 24.1719H8.71484ZM24.3927 58.0391C24.3927 60.6652 20.3497 60.6759 20.3497 58.0391V30.1484C20.3497 27.5223 24.3927 27.5116 24.3927 30.1484V58.0391ZM36.5216 58.0391C36.5216 60.6652 32.4786 60.6759 32.4786 58.0391V30.1484C32.4786 27.5223 36.5216 27.5116 36.5216 30.1484V58.0391ZM48.6505 58.0391C48.6505 60.6652 44.6075 60.6759 44.6075 58.0391V30.1484C44.6075 29.0473 45.5117 28.1562 46.629 28.1562C47.7463 28.1562 48.6505 29.0473 48.6505 30.1484V58.0391Z" fill="#27502B"/>
</g>
</g>
</g>
</svg>
